<?xml version="1.0" encoding="UTF-8" standalone="no"?>
<svg width="121px" height="76px" viewBox="0 0 121 76" version="1.1" xmlns="http://www.w3.org/2000/svg" xmlns:xlink="http://www.w3.org/1999/xlink">
    <!-- Generator: Sketch 3.8.2 (29753) - http://www.bohemiancoding.com/sketch -->
    <title>poweredbybehance-logo-white-horizontal</title>
    <desc>Created with Sketch.</desc>
    <defs></defs>
    <g id="Page-1" stroke="none" stroke-width="1" fill="none" fill-rule="evenodd">
        <g id="Desktop-HD" transform="translate(-654.000000, -1937.000000)" fill="#0A0A08">
            <g id="poweredbybehance-logo-white-horizontal" transform="translate(654.000000, 1937.000000)">
                <path d="M33.9602273,61.9546296 C35.5625,61.9546296 37.0852273,61.8091852 38.5170455,61.4897778 C39.96875,61.1703704 41.2585227,60.6655926 42.3465909,59.9184074 C43.4318182,59.1968889 44.3380682,58.213 44.9886364,56.961037 C45.6448864,55.7176296 45.9630682,54.1063333 45.9630682,52.1556667 C45.9630682,48.337037 44.8892045,45.6249259 42.7613636,43.9765556 C40.625,42.3538519 37.78125,41.5439259 34.28125,41.5439259 L16.6107955,41.5439259 L16.6107955,61.9546296 L33.9602273,61.9546296 L33.9602273,61.9546296 Z M33.0625,30.4074444 C35.9403409,30.4074444 38.3238636,29.7201481 40.2130682,28.3284444 C42.0852273,26.9595556 42.9886364,24.6951852 42.9886364,21.5895185 C42.9886364,19.8641481 42.6875,18.4410741 42.0852273,17.3317037 C41.4573864,16.228037 40.625,15.3610741 39.5795455,14.7564815 C38.5397727,14.1262222 37.3607955,13.6898889 36,13.456037 C34.6590909,13.1908148 33.2585227,13.0881481 31.8181818,13.0881481 L16.6107955,13.0881481 L16.6107955,30.4074444 L33.0625,30.4074444 L33.0625,30.4074444 Z M35.1619318,0.465851852 C38.6931818,0.465851852 41.8806818,0.771 44.7954545,1.40411111 C47.6903409,2.02011111 50.1590909,3.04962963 52.25,4.4612963 C54.3068182,5.87296296 55.9176136,7.74948148 57.0710227,10.1136667 C58.1931818,12.4436296 58.7585227,15.3610741 58.7585227,18.8118148 C58.7585227,22.542037 57.9176136,25.6591111 56.2272727,28.1487778 C54.5284091,30.6384444 52.03125,32.6775185 48.6988636,34.2602963 C53.2357955,35.5721481 56.6051136,37.8792963 58.8352273,41.1617778 C61.0767045,44.4670741 62.1761364,48.4225926 62.1761364,53.0597037 C62.1761364,56.8184444 61.4602273,60.0524444 60.0255682,62.7731111 C58.5795455,65.5308519 56.6107955,67.761 54.1846591,69.4863704 C51.7386364,71.2231481 48.9346591,72.5007778 45.7869318,73.3306667 C42.6789773,74.1577037 39.4488636,74.5740741 36.1363636,74.5740741 L0.355113636,74.5740741 L0.355113636,0.465851852 L35.1619318,0.465851852 L35.1619318,0.465851852 Z" id="Fill-1"></path>
                <path d="M102.215909,33.5131111 C100.46875,31.5767037 97.5170455,30.5272222 93.9119318,30.5272222 C91.5653409,30.5272222 89.625,30.9236296 88.0681818,31.7307037 C86.5454545,32.5263704 85.3011364,33.5188148 84.3494318,34.6852222 C83.4005682,35.8744444 82.7585227,37.1292593 82.3806818,38.4667778 C82.0056818,39.7729259 81.7784091,40.9592963 81.7130682,42.0030741 L105.599432,42.0030741 C105.25,38.2471852 103.96875,35.4666296 102.215909,33.5131111 L102.215909,33.5131111 Z M85.34375,61.7093704 C87.5454545,63.8653704 90.7244318,64.9490741 94.84375,64.9490741 C97.8039773,64.9490741 100.360795,64.1961852 102.508523,62.698963 C104.636364,61.2017407 105.931818,59.6018519 106.431818,57.9420741 L119.363636,57.9420741 C117.284091,64.4015185 114.133523,69.012963 109.829545,71.7878148 C105.576705,74.5740741 100.394886,75.9657778 94.3522727,75.9657778 C90.1420455,75.9657778 86.3522727,75.2813333 82.9488636,73.9324074 C79.5482955,72.5692222 76.7073864,70.6556296 74.3153409,68.1631111 C71.9857955,65.6563333 70.1761364,62.698963 68.8863636,59.2197037 C67.6107955,55.7632593 66.96875,51.9332222 66.96875,47.7837778 C66.96875,43.7712222 67.6363636,40.0238889 68.9431818,36.556037 C70.2727273,33.0824815 72.1193182,30.0794815 74.5426136,27.5641481 C76.9715909,25.0345556 79.8494318,23.0411111 83.2017045,21.580963 C86.5568182,20.1293704 90.2556818,19.3964444 94.3522727,19.3964444 C98.875,19.3964444 102.832386,20.271963 106.230114,22.0515185 C109.610795,23.8082593 112.386364,26.1838519 114.565341,29.164037 C116.741477,32.1328148 118.295455,35.5322222 119.264205,39.348 C120.224432,43.1523704 120.5625,47.1307037 120.286932,51.2915556 L81.7130682,51.2915556 C81.7130682,55.5351111 83.1392045,59.5533704 85.34375,61.7093704 L85.34375,61.7093704 Z" id="Fill-2"></path>
                <polygon id="Fill-7" points="78.7073864 12.7487778 108.633523 12.7487778 108.633523 5.43662963 78.7073864 5.43662963"></polygon>
            </g>
        </g>
    </g>
</svg>