<?xml version="1.0" encoding="UTF-8" standalone="no"?>
<svg width="97px" height="97px" viewBox="0 0 97 97" version="1.1" xmlns="http://www.w3.org/2000/svg" xmlns:xlink="http://www.w3.org/1999/xlink">
    <!-- Generator: Sketch 3.8.2 (29753) - http://www.bohemiancoding.com/sketch -->
    <title>ic_forum_48px</title>
    <desc>Created with Sketch.</desc>
    <defs></defs>
    <g id="Page-1" stroke="none" stroke-width="1" fill="none" fill-rule="evenodd">
        <g id="Desktop-HD" transform="translate(-1011.000000, -1927.000000)">
            <g id="ic_forum_48px" transform="translate(1002.000000, 1918.000000)">
                <g id="Group">
                    <polygon id="Shape" points="0 0 115 0 115 115 0 115"></polygon>
                    <path d="M100.625,28.75 L91.0416667,28.75 L91.0416667,71.875 L28.75,71.875 L28.75,81.4583333 C28.75,84.09375 30.90625,86.25 33.5416667,86.25 L86.25,86.25 L105.416667,105.416667 L105.416667,33.5416667 C105.416667,30.90625 103.260417,28.75 100.625,28.75 L100.625,28.75 Z M81.4583333,57.5 L81.4583333,14.375 C81.4583333,11.7395833 79.3020833,9.58333333 76.6666667,9.58333333 L14.375,9.58333333 C11.7395833,9.58333333 9.58333333,11.7395833 9.58333333,14.375 L9.58333333,81.4583333 L28.75,62.2916667 L76.6666667,62.2916667 C79.3020833,62.2916667 81.4583333,60.1354167 81.4583333,57.5 L81.4583333,57.5 Z" id="Shape" fill="#000000"></path>
                </g>
            </g>
        </g>
    </g>
</svg>