<?xml version="1.0" encoding="UTF-8" standalone="no"?>
<svg width="145px" height="143px" viewBox="0 0 145 143" version="1.1" xmlns="http://www.w3.org/2000/svg" xmlns:xlink="http://www.w3.org/1999/xlink">
    <!-- Generator: Sketch 3.8.2 (29753) - http://www.bohemiancoding.com/sketch -->
    <title>Group 3</title>
    <desc>Created with Sketch.</desc>
    <defs></defs>
    <g id="Page-1" stroke="none" stroke-width="1" fill="none" fill-rule="evenodd">
        <g id="Desktop-HD" transform="translate(-987.000000, -1209.000000)" fill="#151513">
            <g id="Group-2" transform="translate(890.000000, 1136.000000)">
                <g id="Group-3" transform="translate(97.000000, 73.000000)">
                    <path d="M0.264834711,73.087541 C0.264834711,105.143311 20.9998347,132.339234 49.7529752,141.932778 C53.3695868,142.604386 54.6973554,140.358884 54.6973554,138.442578 C54.6973554,136.712496 54.6302479,130.99722 54.5990909,124.934725 C34.4668595,129.323606 30.218719,116.374425 30.218719,116.374425 C26.9268595,107.988335 22.1838017,105.758452 22.1838017,105.758452 C15.6180579,101.255433 22.678719,101.347945 22.678719,101.347945 C29.9454959,101.859761 33.7718182,108.824541 33.7718182,108.824541 C40.2261157,119.916287 50.7008678,116.709628 54.8303719,114.855798 C55.479876,110.166556 57.3552893,106.965904 59.4248347,105.154124 C43.351405,103.319517 26.4547107,97.0984316 26.4547107,69.2981815 C26.4547107,61.3770506 29.2816116,54.9048631 33.9108264,49.8239496 C33.1594628,47.9965508 30.6824793,40.6172718 34.6118595,30.6236472 C34.6118595,30.6236472 40.6886777,28.673701 54.5176033,38.0605956 C60.2900413,36.4530614 66.4807025,35.6468913 72.6306198,35.6192581 C78.7805372,35.6468913 84.9759917,36.4530614 90.7592149,38.0605956 C104.571364,28.673701 110.639793,30.6236472 110.639793,30.6236472 C114.57876,40.6172718 112.100579,47.9965508 111.349215,49.8239496 C115.989215,54.9048631 118.796942,61.3770506 118.796942,69.2981815 C118.796942,97.1645111 101.867893,103.300294 85.753719,105.096455 C88.3493388,107.347964 90.6621488,111.763277 90.6621488,118.532221 C90.6621488,128.239902 90.5782645,136.052903 90.5782645,138.442578 C90.5782645,140.373301 91.8808678,142.635623 95.5490083,141.923166 C124.28657,132.31881 144.995207,105.132498 144.995207,73.087541 C144.995207,33.0169269 112.595496,0.534643298 72.6306198,0.534643298 C32.6693388,0.534643298 0.264834711,33.0169269 0.264834711,73.087541 Z" id="Fill-4"></path>
                    <g id="GitHub-Mark" transform="translate(25.000000, 103.000000)">
                        <path d="M2.67342975,1.70478375 C2.51404959,2.06521743 1.94842975,2.17334753 1.4331405,1.92584974 C0.908264463,1.68916495 0.613471074,1.1977737 0.783636364,0.836138567 C0.939421488,0.464891873 1.50623967,0.36156755 2.02991736,0.610266792 C2.55599174,0.846951578 2.85557851,1.34314862 2.67342975,1.70478375" id="Fill-5"></path>
                        <path d="M5.60458678,4.98232738 C5.25946281,5.30311336 4.58479339,5.1541341 4.12702479,4.64712405 C3.65367769,4.14131545 3.565,3.46490157 3.91491736,3.13930981 C4.27082645,2.81852383 4.92512397,2.96870453 5.39966942,3.47451313 C5.87301653,3.98632897 5.96528926,4.65793706 5.60458678,4.98232738" id="Fill-6"></path>
                        <path d="M8.45785124,9.16095522 C8.01446281,9.46972674 7.28946281,9.18017835 6.84128099,8.53500206 C6.39789256,7.88982576 6.39789256,7.11609479 6.85086777,6.80612182 C7.30024793,6.49614885 8.01446281,6.77488423 8.46863636,7.41525475 C8.91082645,8.07124405 8.91082645,8.84497502 8.45785124,9.16095522" id="Fill-7"></path>
                        <path d="M12.3668595,13.1978125 C11.9702066,13.6363401 11.1253719,13.5185985 10.5070248,12.9202785 C9.87429752,12.3351745 9.6981405,11.5049756 10.0959917,11.066448 C10.497438,10.6267189 11.3470661,10.7504678 11.9702066,11.3439819 C12.5981405,11.9278845 12.789876,12.7640906 12.3668595,13.1978125" id="Fill-8"></path>
                        <path d="M17.7594215,15.5418329 C17.5844628,16.1101166 16.7707851,16.3684275 15.9511157,16.1269369 C15.1326446,15.8782376 14.5969835,15.2126368 14.7623554,14.6383458 C14.9325207,14.0664577 15.7497934,13.7973338 16.5754545,14.0556446 C17.3927273,14.3031424 17.9295868,14.9639375 17.7594215,15.5418329" id="Fill-9"></path>
                        <path d="M23.6816529,15.9767562 C23.7020248,16.5750761 23.0069835,17.0712731 22.1465702,17.0820861 C21.2813636,17.1013093 20.5815289,16.6171267 20.5719421,16.0284183 C20.5719421,15.4240912 21.251405,14.9326999 22.1166116,14.9182826 C22.9770248,14.9014624 23.6816529,15.3820406 23.6816529,15.9767562" id="Fill-10"></path>
                        <path d="M29.1928512,15.0360243 C29.2959091,15.6199268 28.6979339,16.2194482 27.8435124,16.3792405 C27.0034711,16.5330255 26.2257438,16.1725918 26.1190909,15.593495 C26.0148347,14.9951751 26.623595,14.3956538 27.462438,14.2406673 C28.3180579,14.091688 29.0838017,14.4425101 29.1928512,15.0360243" id="Fill-11"></path>
                    </g>
                </g>
            </g>
        </g>
    </g>
</svg>