<?xml version="1.0" encoding="UTF-8" standalone="no"?>
<svg width="145px" height="144px" viewBox="0 0 145 144" version="1.1" xmlns="http://www.w3.org/2000/svg" xmlns:xlink="http://www.w3.org/1999/xlink">
    <!-- Generator: Sketch 3.8.2 (29753) - http://www.bohemiancoding.com/sketch -->
    <title>In-Black-2in-TM</title>
    <desc>Created with Sketch.</desc>
    <defs>
        <polygon id="path-1" points="144.004 143.94 0 143.94 0 71.97 0 0 144.004 0"></polygon>
    </defs>
    <g id="Page-1" stroke="none" stroke-width="1" fill="none" fill-rule="evenodd">
        <g id="In-Black-2in-TM">
            <g id="Group-3">
                <mask id="mask-2" fill="white">
                    <use xlink:href="#path-1"></use>
                </mask>
                <g id="Clip-2"></g>
                <path d="M122.708,122.707 L101.364,122.707 L101.364,89.287 C101.364,81.318 101.218,71.067 90.265,71.067 C79.152,71.067 77.446,79.748 77.446,88.711 L77.446,122.707 L56.106,122.707 L56.106,53.985 L76.591,53.985 L76.591,63.375 L76.877,63.375 C79.729,57.973 86.696,52.277 97.087,52.277 C118.715,52.277 122.708,66.511 122.708,85.013 L122.708,122.707 L122.708,122.707 Z M32.034,44.591 C25.188,44.591 19.648,39.042 19.648,32.205 C19.648,25.374 25.188,19.825 32.034,19.825 C38.863,19.825 44.412,25.374 44.412,32.205 C44.412,39.042 38.863,44.591 32.034,44.591 L32.034,44.591 Z M21.35,122.707 L42.71,122.707 L42.71,53.985 L21.35,53.985 L21.35,122.707 Z M133.345,0 L10.629,0 C4.765,0 0,4.648 0,10.376 L0,133.61 C0,139.345 4.765,144 10.629,144 L133.345,144 C139.219,144 144.004,139.345 144.004,133.61 L144.004,10.376 C144.004,4.648 139.219,0 133.345,0 L133.345,0 Z" id="Fill-1" fill="#1A1918" mask="url(#mask-2)"></path>
            </g>
        </g>
    </g>
</svg>