<?xml version="1.0" encoding="UTF-8" standalone="no"?>
<svg width="208px" height="179px" viewBox="0 0 208 179" version="1.1" xmlns="http://www.w3.org/2000/svg" xmlns:xlink="http://www.w3.org/1999/xlink">
    <!-- Generator: Sketch 3.8.2 (29753) - http://www.bohemiancoding.com/sketch -->
    <title>medium-logo</title>
    <desc>Created with Sketch.</desc>
    <defs></defs>
    <g id="Page-1" stroke="none" stroke-width="1" fill="none" fill-rule="evenodd">
        <g id="medium-logo" fill="#000000">
            <g id="Group">
                <g id="#b1bac5ff">
                    <path d="M137.19,1.02 C138.39,0.81 139.58,0.85 140.75,1.16 C162.31,12 183.92,22.75 205.5,33.56 C207.64,35.87 204.95,38.66 203.68,40.67 C185.3,70.61 166.85,100.51 148.46,130.45 C146.11,133.78 144.44,137.58 141.87,140.74 C140.42,140.52 139.95,138.81 139.22,137.76 C125.49,115.47 111.74,93.19 98.07,70.86 C97.34,69.61 95.69,68.13 96.63,66.58 C103.97,54.63 111.36,42.71 118.71,30.76 C124.9,20.87 130.78,10.76 137.19,1.02 L137.19,1.02 Z" id="Shape"></path>
                    <path d="M1.32,2.15 C2.63,1.42 4.36,1.53 5.69,2.17 C26.57,12.68 47.5,23.08 68.39,33.57 C70.38,34.08 69.95,36.38 70.07,37.94 C70.03,83.32 70.09,128.7 70.04,174.07 C70.18,176.08 69.23,178.83 66.81,178.7 C64.15,179.12 61.94,177.38 59.68,176.32 C41.46,167.22 23.25,158.09 5.02,149.01 C2.27,147.88 0.28,144.99 0.31,142.01 C0.35,95.8 0.28,49.58 0.35,3.38 C0.59,3.07 1.08,2.46 1.32,2.15 L1.32,2.15 Z" id="Shape"></path>
                </g>
                <g id="#b1bac4ff" transform="translate(74.000000, 44.000000)">
                    <path d="M1.03,0.97 C2.41,0.83 3.18,2.28 3.81,3.26 C22.5,33.58 41.16,63.91 59.8,94.26 C60.95,96.93 63.72,98.95 63.86,101.97 C62.46,102.42 61.2,101.43 59.98,100.92 C40.93,91.34 21.83,81.85 2.77,72.28 C1.43,71.73 0.65,70.49 0.94,69.04 C1,46.35 0.82,23.66 1.03,0.97 L1.03,0.97 Z" id="Shape"></path>
                </g>
                <g id="#b1b9c4ff" transform="translate(143.000000, 46.000000)">
                    <path d="M63.28,0.45 L63.96,0.13 C64.17,3.08 64.1,6.04 64.1,9 C64.1,48.36 64.09,87.71 64.1,127.06 C64.05,128.52 64.13,130.1 63.24,131.35 C61.88,132.73 59.68,133 57.96,132.21 C38.84,122.62 19.68,113.1 0.58,103.49 L0.06,102.94 L0.22,102.22 C21.05,68.42 41.81,34.57 62.68,0.79 L63.28,0.45 L63.28,0.45 Z" id="Shape"></path>
                </g>
            </g>
        </g>
    </g>
</svg>